HIERARCHY
ROOT Hips
{
	OFFSET 0.000000 0.000000 0.000000 
	CHANNELS 6 Xposition Yposition Zposition Zrotation Yrotation Xrotation
	JOINT LeftUpLeg
	{
		OFFSET 1.363060 -1.794630 0.839290 
		CHANNELS 3 Zrotation Yrotation Xrotation
		JOINT LeftLeg
		{
			OFFSET 2.448110 -6.726130 0.000000 
			CHANNELS 3 Zrotation Yrotation Xrotation
			JOINT LeftFoot
			{
				OFFSET 2.562200 -7.039590 0.000000 
				CHANNELS 3 Zrotation Yrotation Xrotation
				JOINT LeftToeBase
				{
					OFFSET 0.157640 -0.433110 2.322550 
					CHANNELS 3 Zrotation Yrotation Xrotation
					End Site
					{
						OFFSET 0.000000 0.000000 0.000000 
					}
				}
			}
		}
	}
	JOINT RightUpLeg
	{
		OFFSET -1.305520 -1.794630 0.839290 
		CHANNELS 3 Zrotation Yrotation Xrotation
		JOINT RightLeg
		{
			OFFSET -2.542530 -6.985550 0.000000 
			CHANNELS 3 Zrotation Yrotation Xrotation
			JOINT RightFoot
			{
				OFFSET -2.568260 -7.056230 0.000000 
				CHANNELS 3 Zrotation Yrotation Xrotation
				JOINT RightToeBase
				{
					OFFSET -0.164730 -0.452590 2.363150 
					CHANNELS 3 Zrotation Yrotation Xrotation
					End Site
					{
						OFFSET 0.000000 0.000000 0.000000 
					}
				}
			}
		}
	}
	JOINT Spine
	{
		OFFSET 0.028270 2.035590 -0.193380 
		CHANNELS 3 Zrotation Yrotation Xrotation
		JOINT Spine1
		{
			OFFSET 0.056720 2.048850 -0.042750 
			CHANNELS 3 Zrotation Yrotation Xrotation
			JOINT Neck1
			{
				OFFSET -0.054170 1.746240 0.172020 
				CHANNELS 3 Zrotation Yrotation Xrotation
				JOINT Head
				{
					OFFSET 0.104070 1.761360 -0.123970 
					CHANNELS 3 Zrotation Yrotation Xrotation
					End Site
					{
						OFFSET 0.000000 0.000000 0.000000 
					}
				}
			}
			JOINT LeftArm
			{
				OFFSET 3.362410 1.200890 -0.311210 
				CHANNELS 3 Zrotation Yrotation Xrotation
				JOINT LeftForeArm
				{
					OFFSET 4.983000 -0.000000 -0.000000 
					CHANNELS 3 Zrotation Yrotation Xrotation
					JOINT LeftHand
					{
						OFFSET 3.483560 -0.000000 -0.000000 
						CHANNELS 3 Zrotation Yrotation Xrotation
						JOINT LeftHandIndex1
						{
							OFFSET 0.715260 -0.000000 -0.000000 
							CHANNELS 3 Zrotation Yrotation Xrotation
							End Site
							{
								OFFSET 0.000000 0.000000 0.000000 
							}
						}
					}
				}
			}
			JOINT RightArm
			{
				OFFSET -3.136600 1.374050 -0.404650 
				CHANNELS 3 Zrotation Yrotation Xrotation
				JOINT RightForeArm
				{
					OFFSET -5.241900 -0.000000 -0.000000 
					CHANNELS 3 Zrotation Yrotation Xrotation
					JOINT RightHand
					{
						OFFSET -3.444170 -0.000000 -0.000000 
						CHANNELS 3 Zrotation Yrotation Xrotation
						JOINT RightHandIndex1
						{
							OFFSET -0.622530 -0.000000 -0.000000 
							CHANNELS 3 Zrotation Yrotation Xrotation
							End Site
							{
								OFFSET 0.000000 0.000000 0.000000 
							}
						}
					}
				}
			}
		}
	}
}
MOTION
Frames: 7
Frame Time: 0.041667
-0.217281 17.635329 -40.916528 0.107452 3.619829 16.978071 -11.914107 -4.118308 -41.297715 6.548559 16.963914 50.476056 -0.721169 4.975369 -2.314875 0.022300 -0.964900 -2.652300 20.717881 2.344421 -23.145414 -1.831566 -11.449253 31.878478 -2.328832 12.775488 -12.923888 -0.032100 1.157300 -3.181700 1.336891 -1.024111 -9.112675 -0.010000 -0.167998 -0.002317 -0.697353 -12.324387 10.715674 -0.504200 -6.205700 2.329900 -96.230236 5.843166 -13.524947 6.224319 -17.225905 -0.788769 -1.078571 -0.364124 30.451410 -7.125000 0.000000 0.000000 90.878418 8.004103 35.118392 -23.553926 41.550761 -7.958681 -0.132405 -1.897949 -15.928211 7.125000 0.000000 0.000000 
-0.184694 17.662664 -40.712325 -0.026444 2.814524 17.025347 -11.863842 -3.689411 -41.091348 5.556613 16.225784 47.194187 -0.797791 5.433156 -2.540020 0.001600 -0.258200 -0.709400 20.718961 1.483824 -22.338830 -1.690044 -11.127343 30.932213 -2.431998 14.152901 -12.659806 -0.017000 0.843100 -2.317100 1.281147 -0.741807 -9.003753 -0.114882 -0.026165 0.442406 -0.706469 -12.316694 10.457633 -0.460100 -6.195700 2.162100 -96.163661 6.223519 -14.133914 6.181197 -17.151954 -0.782957 -1.077158 -0.360223 30.746037 -7.125000 0.000000 0.000000 90.379419 8.913986 36.102957 -24.257568 42.278216 -8.390581 -0.109619 -1.827074 -16.184155 7.125000 0.000000 0.000000 
-0.167221 17.681422 -40.532347 0.022910 2.347386 17.118472 -11.863981 -3.557622 -40.961041 4.606235 15.447063 43.943045 -0.852823 5.743541 -2.499759 0.002200 -0.304000 -0.835200 20.621106 0.690093 -21.763576 -1.618959 -10.937088 30.385985 -2.527302 14.903022 -12.822178 -0.034400 1.196600 -3.290000 1.224129 -0.678266 -8.721526 -0.217495 -0.004709 1.456397 -0.614662 -12.391088 10.064261 -0.388500 -6.217200 1.928300 -96.113337 5.824829 -15.650054 5.990390 -16.804351 -0.723110 -1.105239 -0.364523 31.750610 -7.125000 0.000000 0.000000 90.189750 10.370513 36.875648 -25.075823 43.145576 -8.897161 -0.065902 -1.787609 -16.384101 7.125000 0.000000 0.000000 
-0.161969 17.685281 -40.371772 -0.081760 2.041923 17.160982 -11.527732 -3.577749 -40.810767 3.674526 14.579849 40.570644 -0.883199 5.901710 -2.080254 0.011400 -0.689700 -1.895300 20.729521 0.233934 -21.136178 -1.524285 -10.708386 29.768166 -2.546987 15.418747 -12.607373 -0.033800 1.186400 -3.261900 1.292047 -0.677290 -8.982395 0.065037 0.029534 0.532932 -0.778890 -12.353918 10.274106 -0.445600 -6.210900 2.026200 -96.097586 6.623512 -16.820071 5.949937 -16.620845 -0.687676 -1.130242 -0.352547 32.627124 -7.125000 0.000000 0.000000 89.649930 10.672255 37.413958 -26.306919 44.134544 -9.539098 0.007575 -1.832806 -18.214644 7.125000 0.000000 0.000000 
-0.150928 17.684745 -40.202406 -0.189052 1.648190 17.157373 -11.220291 -3.544865 -40.525134 2.780655 13.637611 37.138033 -0.970499 6.357157 -1.571217 0.088700 -1.920900 -5.287200 20.788259 -0.345888 -20.520304 -1.452149 -10.493974 29.203229 -2.561726 16.212931 -12.240438 -0.014200 0.768300 -2.111500 1.319391 -0.570289 -9.238629 0.246422 0.109166 -0.391286 -0.927855 -12.320295 10.518945 -0.523100 -6.208800 2.189900 -95.944487 7.580083 -16.784091 6.054955 -16.749109 -0.714490 -1.114429 -0.347181 32.559851 -7.125000 0.000000 0.000000 89.106011 11.023015 37.894597 -27.001691 44.671889 -9.941869 0.050898 -1.791025 -19.169822 7.125000 0.000000 0.000000 
-0.136564 17.690963 -40.026502 -0.418242 1.227717 17.238745 -10.769036 -3.439994 -40.183193 1.945944 12.636702 33.693729 -1.057586 6.812246 -1.027780 0.256500 -3.258600 -8.999500 20.986445 -1.264826 -20.043801 -1.391016 -10.304269 28.658997 -2.587936 17.236295 -11.957435 -0.008900 0.609800 -1.675800 1.260042 -0.486188 -8.767641 -0.001259 0.125070 1.218015 -0.706768 -12.403047 10.061825 -0.421900 -6.232800 2.007100 -95.806047 6.555054 -18.267643 5.829441 -16.359201 -0.665125 -1.122916 -0.348247 33.754434 -7.125000 0.000000 0.000000 89.063562 12.995392 38.402071 -27.802354 45.480276 -10.449428 0.076757 -1.806266 -19.637010 7.125000 0.000000 0.000000 
-0.129489 17.697823 -39.858316 -0.718521 0.721882 17.257635 -10.091449 -3.407156 -39.754020 1.176226 11.568811 30.234411 -1.066810 6.891135 -0.525608 0.317600 -3.622600 -10.017400 21.227920 -1.768669 -19.428773 -1.316795 -10.089870 28.078176 -2.595034 18.013052 -11.725504 -0.005500 0.479300 -1.316900 1.279699 -0.398218 -9.027693 -0.006720 0.183299 0.264104 -0.808616 -12.318477 10.224923 -0.450900 -6.198500 2.061200 -95.552292 7.345651 -19.840550 5.711180 -15.987784 -0.616811 -1.133245 -0.336666 35.033577 -7.125000 0.000000 0.000000 88.657324 13.113920 39.518656 -28.887607 46.318381 -11.100525 0.079664 -1.746289 -20.869308 7.125000 0.000000 0.000000 
